@startuml
interface AbstractFactory{
    createProductA()
    createProductB()
}

class ConcreteFactory1{
    createProductA()
    createProductB()
}

class ConcreteFactory2{
    createProductA()
    createProductB()
}

AbstractFactory <|.. ConcreteFactory1
AbstractFactory <|.. ConcreteFactory2

interface AbstractProductA{}
class ProductA1{}
class ProductA2{}
AbstractProductA <|.. ProductA1
AbstractProductA <|.. ProductA2

interface AbstractProductB{}
class ProductB1{}
class ProductB2{}
AbstractProductB <|.. ProductB1
AbstractProductB <|.. ProductB2

class Client{}

ConcreteFactory1 --> ProductA1
ConcreteFactory1 --> ProductB1

ConcreteFactory2 --> ProductA2
ConcreteFactory2 --> ProductB2

Client --> AbstractProductA
Client --> AbstractProductB
Client --> AbstractFactory

@enduml
